<svg fill="#FFFFFF" width="15" height="15" viewBox="0 0 18 18"  xmlns="http://www.w3.org/2000/svg">
<path d="M8.8476 0.553711C5.6133 0.553711 2.98193 3.18507 2.98193 6.41938C2.98193 10.4846 8.85337 17.4287 8.85337 17.4287C8.85337 17.4287 14.7133 10.2846 14.7133 6.41938C14.7133 3.18507 12.082 0.553711 8.8476 0.553711ZM10.6174 8.13685C10.1294 8.62475 9.48855 8.86875 8.8476 8.86875C8.20676 8.86875 7.56571 8.62475 7.07791 8.13685C6.10202 7.16106 6.10202 5.57326 7.07791 4.59737C7.55046 4.12461 8.17905 3.86423 8.8476 3.86423C9.51616 3.86423 10.1446 4.12471 10.6174 4.59737C11.5933 5.57326 11.5933 7.16106 10.6174 8.13685Z"/>
</svg>
